<?xml version="1.0" encoding="UTF-8"?>
<svg width="512px" height="512px" viewBox="0 0 512 512" version="1.1" xmlns="http://www.w3.org/2000/svg" xmlns:xlink="http://www.w3.org/1999/xlink">
    <!-- Generator: Sketch 51.3 (57544) - http://www.bohemiancoding.com/sketch -->
    <title>play/ic_launcher_APP Copy 411</title>
    <desc>Created with Sketch.</desc>
    <defs></defs>
    <g id="play/ic_launcher_APP-Copy-4" stroke="none" stroke-width="1" fill="none" fill-rule="evenodd">
        <g id="Group-2" transform="translate(45.000000, 19.000000)">
            <path d="M421.081851,137.865559 L421.081851,336.418353 C421.081851,350.204932 413.726798,362.944257 401.78727,369.837547 L229.835506,469.113944 C217.895978,476.007234 203.185873,476.007234 191.246344,469.113944 L19.2945809,369.837547 C7.3550527,362.944257 0,350.204932 0,336.418353 L3.65589982e-14,137.865559 C3.65589982e-14,124.078979 7.3550527,111.339654 19.2945809,104.446364 L191.246344,5.16996738 C203.185873,-1.72332246 217.895978,-1.72332246 229.835506,5.16996738 L401.78727,104.446364 C413.726798,111.339654 421.081851,124.078979 421.081851,137.865559 Z" id="Polygon" fill="#34A9DC"></path>
            <g id="N" transform="translate(86.000000, 116.000000)" fill="#FFFFFF">
                <g id="Group-Copy" transform="translate(6.000000, 0.000000)">
                    <path d="M170.964082,239.54614 L169.014268,241.125115 C166.868239,242.862935 163.719757,242.532017 161.981936,240.385987 C161.981717,240.385716 161.981497,240.385445 161.981277,240.385173 L75.6999998,133.790066 L75.6999998,236.904433 C75.6999998,239.665857 73.4614236,241.904433 70.6999998,241.904433 C69.7462783,241.904433 68.812451,241.631667 68.0086774,241.118313 L3.00867739,199.604088 C1.57041597,198.685499 0.699999809,197.096784 0.699999809,195.390208 L0.699999809,47.9167503 C0.699999809,46.2128736 1.567684,44.626285 3.00227445,43.7069667 L65.2739569,3.80185212 L67.5558914,1.93799041 C69.6945734,0.191135985 72.8444231,0.508774996 74.5912775,2.647457 C74.5957235,2.65290024 74.600158,2.65835285 74.604581,2.66381479 L161,109.353272 L161,6.1426616 C161,5.18635434 161.274246,4.25010556 161.790216,3.44493624 C163.280129,1.11993696 166.372726,0.442965431 168.697725,1.932878 L233.697725,43.5863607 C235.132316,44.505679 236,46.0922676 236,47.7961443 L236,195.269602 C236,196.976178 235.129584,198.564893 233.691322,199.483482 L170.964082,239.54614 Z" id="Combined-Shape"></path>
                </g>
            </g>
        </g>
    </g>
</svg>