<?xml version="1.0" encoding="UTF-8"?>
<svg width="236px" height="243px" viewBox="0 0 236 243" version="1.1" xmlns="http://www.w3.org/2000/svg" xmlns:xlink="http://www.w3.org/1999/xlink">
    <g id="Page-1" stroke="none" stroke-width="1" fill="none" fill-rule="evenodd">
        <g id="play/ic_launcher_APP-Copy-5" transform="translate(-138.000000, -135.000000)" fill="#384047">
            <path d="M308.964082,374.54614 L307.014268,376.125115 C304.868239,377.862935 301.719757,377.532017 299.981936,375.385987 C299.981717,375.385716 299.981497,375.385445 299.981277,375.385173 L213.7,268.790066 L213.7,371.904433 C213.7,374.665857 211.461424,376.904433 208.7,376.904433 C207.746278,376.904433 206.812451,376.631667 206.008677,376.118313 L141.008677,334.604088 C139.570416,333.685499 138.7,332.096784 138.7,330.390208 L138.7,182.91675 C138.7,181.212874 139.567684,179.626285 141.002274,178.706967 L203.273957,138.801852 L205.555891,136.93799 C207.694573,135.191136 210.844423,135.508775 212.591277,137.647457 C212.595723,137.6529 212.600158,137.658353 212.604581,137.663815 L299,244.353272 L299,141.142662 C299,140.186354 299.274246,139.250106 299.790216,138.444936 C301.280129,136.119937 304.372726,135.442965 306.697725,136.932878 L371.697725,178.586361 C373.132316,179.505679 374,181.092268 374,182.796144 L374,330.269602 C374,331.976178 373.129584,333.564893 371.691322,334.483482 L308.964082,374.54614 Z" id="Combined-Shape"></path>
        </g>
    </g>
</svg>